<svg width="155" height="107" viewBox="0 0 155 107" fill="none" xmlns="http://www.w3.org/2000/svg">
<rect x="63" y="61" width="14" height="46" fill="#F2BD7D"/>
<path d="M35.136 84L17.184 60.096L35.04 37.632H49.536L28.608 62.976L29.088 56.832L50.496 84H35.136ZM5.568 84V14.592H18.144V84H5.568ZM44.9993 84V37.632H57.6713V84H44.9993ZM51.3353 30.144C49.2873 30.144 47.5913 29.472 46.2473 28.128C44.9033 26.72 44.2313 24.992 44.2313 22.944C44.2313 20.96 44.9033 19.264 46.2473 17.856C47.5913 16.448 49.2873 15.744 51.3353 15.744C53.4473 15.744 55.1433 16.448 56.4233 17.856C57.7673 19.264 58.4393 20.96 58.4393 22.944C58.4393 24.992 57.7673 26.72 56.4233 28.128C55.1433 29.472 53.4473 30.144 51.3353 30.144ZM78.6038 84.96C74.3798 84.96 70.5717 83.904 67.1797 81.792C63.7877 79.68 61.1317 76.8 59.2117 73.152C57.2917 69.504 56.3317 65.408 56.3317 60.864C56.3317 56.256 57.2917 52.128 59.2117 48.48C61.1317 44.832 63.7877 41.952 67.1797 39.84C70.5717 37.728 74.3798 36.672 78.6038 36.672C81.9318 36.672 84.9078 37.344 87.5318 38.688C90.1558 40.032 92.2358 41.92 93.7718 44.352C95.3718 46.72 96.2358 49.408 96.3638 52.416V69.12C96.2358 72.192 95.3718 74.912 93.7718 77.28C92.2358 79.648 90.1558 81.536 87.5318 82.944C84.9078 84.288 81.9318 84.96 78.6038 84.96ZM80.9078 73.344C84.4278 73.344 87.2758 72.192 89.4518 69.888C91.6278 67.52 92.7157 64.48 92.7157 60.768C92.7157 58.336 92.2038 56.192 91.1798 54.336C90.2198 52.416 88.8438 50.944 87.0518 49.92C85.3238 48.832 83.2758 48.288 80.9078 48.288C78.6038 48.288 76.5558 48.832 74.7638 49.92C73.0357 50.944 71.6597 52.416 70.6357 54.336C69.6757 56.192 69.1957 58.336 69.1957 60.768C69.1957 63.264 69.6757 65.472 70.6357 67.392C71.6597 69.248 73.0357 70.72 74.7638 71.808C76.5558 72.832 78.6038 73.344 80.9078 73.344ZM92.0437 84V71.52L94.0598 60.192L92.0437 49.056V37.632H104.524V84H92.0437ZM137.249 84V57.408C137.249 54.656 136.385 52.416 134.657 50.688C132.929 48.96 130.689 48.096 127.937 48.096C126.145 48.096 124.545 48.48 123.137 49.248C121.729 50.016 120.609 51.104 119.777 52.512C119.009 53.92 118.625 55.552 118.625 57.408L113.729 54.912C113.729 51.264 114.497 48.096 116.033 45.408C117.633 42.656 119.809 40.512 122.561 38.976C125.377 37.44 128.545 36.672 132.065 36.672C135.457 36.672 138.497 37.536 141.185 39.264C143.873 40.928 145.985 43.136 147.521 45.888C149.057 48.576 149.825 51.488 149.825 54.624V84H137.249ZM106.049 84V37.632H118.625V84H106.049Z" fill="#489D9D"/>
<circle cx="80" cy="61" r="17" fill="#F2BD7D"/>
</svg>
