<svg width="623" height="585" viewBox="0 0 623 585" fill="none" xmlns="http://www.w3.org/2000/svg">
<path d="M388.294 0C402.101 0.000236405 413.294 11.193 413.294 25C413.294 37.206 404.546 47.3667 392.978 49.5596L426.904 237C358.047 148.5 364.332 86.3976 264.689 233.897C402.551 205.192 454.533 249.744 432.501 395.291C494.004 352.78 518.75 255.438 615.478 209.388C619.304 207.567 623.358 211.32 622.111 215.369C530.09 514.227 492.499 548.037 250.728 460.787C248.083 459.833 245.038 461.271 244.099 463.922C192.255 610.277 56.6324 618.766 0.576146 512.663C-1.6468 508.455 2.98352 504.117 7.28708 506.147C43.2921 523.139 75.7764 526.264 105.186 514.635C69.4098 407.177 218.024 65.8287 363.676 20.624C365.745 8.90341 375.98 0 388.294 0ZM400.803 410.722C406.887 316.523 353.873 300.513 232.403 312.499C190.119 377.097 169.769 421.976 147.296 485.758C171.369 461.433 193.079 424.495 212.756 374.267C213.842 371.493 217.297 370.288 219.956 371.631C305.944 415.048 360.869 422.848 400.803 410.722Z" fill="url(#paint0_linear_1_110)"/>
<defs>
<linearGradient id="paint0_linear_1_110" x1="151.5" y1="382.5" x2="281.5" y2="639" gradientUnits="userSpaceOnUse">
<stop stop-color="#4060DF"/>
<stop offset="1" stop-color="#8C1FB7"/>
</linearGradient>
</defs>
</svg>
