<svg width="237" height="38" viewBox="0 0 237 38" fill="none" xmlns="http://www.w3.org/2000/svg">
<path d="M12.64 29L4.52 19.2L12.6 9.8H17.84L8.56 20.36L8.76 17.84L18.24 29H12.64ZM0.44 29V0.199999H4.84V29H0.44ZM16.8066 29V9.8H21.2066V29H16.8066ZM19.0066 6.28C18.2599 6.28 17.6332 6.02667 17.1266 5.52C16.6466 5.01333 16.4066 4.38667 16.4066 3.64C16.4066 2.89333 16.6466 2.26666 17.1266 1.76C17.6332 1.25333 18.2599 0.999998 19.0066 0.999998C19.7799 0.999998 20.4066 1.25333 20.8866 1.76C21.3666 2.26666 21.6066 2.89333 21.6066 3.64C21.6066 4.38667 21.3666 5.01333 20.8866 5.52C20.4066 6.02667 19.7799 6.28 19.0066 6.28ZM30.7816 29.4C29.0482 29.4 27.4749 28.96 26.0616 28.08C24.6749 27.2 23.5682 26.0133 22.7416 24.52C21.9416 23 21.5416 21.3067 21.5416 19.44C21.5416 17.5467 21.9416 15.8533 22.7416 14.36C23.5682 12.84 24.6749 11.64 26.0616 10.76C27.4749 9.85333 29.0482 9.4 30.7816 9.4C32.2482 9.4 33.5416 9.72 34.6616 10.36C35.8082 10.9733 36.7149 11.8267 37.3816 12.92C38.0482 14.0133 38.3816 15.2533 38.3816 16.64V22.16C38.3816 23.5467 38.0482 24.7867 37.3816 25.88C36.7416 26.9733 35.8482 27.84 34.7016 28.48C33.5549 29.0933 32.2482 29.4 30.7816 29.4ZM31.5016 25.24C33.1282 25.24 34.4349 24.6933 35.4216 23.6C36.4349 22.5067 36.9416 21.1067 36.9416 19.4C36.9416 18.2533 36.7149 17.24 36.2616 16.36C35.8082 15.48 35.1682 14.8 34.3416 14.32C33.5416 13.8133 32.5949 13.56 31.5016 13.56C30.4349 13.56 29.4882 13.8133 28.6616 14.32C27.8616 14.8 27.2216 15.48 26.7416 16.36C26.2882 17.24 26.0616 18.2533 26.0616 19.4C26.0616 20.5467 26.2882 21.56 26.7416 22.44C27.2216 23.32 27.8616 24.0133 28.6616 24.52C29.4882 25 30.4349 25.24 31.5016 25.24ZM36.6616 29V23.84L37.4216 19.16L36.6616 14.52V9.8H41.0616V29H36.6616ZM55.7047 29V17.92C55.7047 16.64 55.2914 15.5867 54.4647 14.76C53.6647 13.9333 52.6247 13.52 51.3447 13.52C50.4914 13.52 49.7314 13.7067 49.0647 14.08C48.398 14.4533 47.878 14.9733 47.5047 15.64C47.1314 16.3067 46.9447 17.0667 46.9447 17.92L45.2247 16.96C45.2247 15.4933 45.5447 14.2 46.1847 13.08C46.8247 11.9333 47.7047 11.04 48.8247 10.4C49.9714 9.73333 51.2514 9.4 52.6647 9.4C54.1047 9.4 55.3847 9.77333 56.5047 10.52C57.6247 11.24 58.5047 12.1867 59.1447 13.36C59.7847 14.5067 60.1047 15.7067 60.1047 16.96V29H55.7047ZM42.5447 29V9.8H46.9447V29H42.5447ZM71.4559 29.4C69.9893 29.4 68.6826 29.0933 67.5359 28.48C66.3893 27.84 65.4826 26.9733 64.8159 25.88C64.1759 24.7867 63.8559 23.5467 63.8559 22.16V16.64C63.8559 15.2533 64.1893 14.0133 64.8559 12.92C65.5226 11.8267 66.4293 10.9733 67.5759 10.36C68.7226 9.72 70.0159 9.4 71.4559 9.4C73.1893 9.4 74.7493 9.85333 76.1359 10.76C77.5493 11.64 78.6559 12.84 79.4559 14.36C80.2826 15.8533 80.6959 17.5467 80.6959 19.44C80.6959 21.3067 80.2826 23 79.4559 24.52C78.6559 26.0133 77.5493 27.2 76.1359 28.08C74.7493 28.96 73.1893 29.4 71.4559 29.4ZM61.1759 37V9.8H65.5759V14.96L64.8159 19.64L65.5759 24.28V37H61.1759ZM70.7359 25.24C71.8026 25.24 72.7359 25 73.5359 24.52C74.3626 24.0133 75.0026 23.32 75.4559 22.44C75.9359 21.56 76.1759 20.5467 76.1759 19.4C76.1759 18.2533 75.9359 17.24 75.4559 16.36C75.0026 15.48 74.3626 14.8 73.5359 14.32C72.7359 13.8133 71.8026 13.56 70.7359 13.56C69.6693 13.56 68.7226 13.8133 67.8959 14.32C67.0693 14.8 66.4293 15.48 65.9759 16.36C65.5226 17.24 65.2959 18.2533 65.2959 19.4C65.2959 20.5467 65.5226 21.56 65.9759 22.44C66.4293 23.32 67.0693 24.0133 67.8959 24.52C68.7226 25 69.6693 25.24 70.7359 25.24ZM89.0191 29.4C87.2857 29.4 85.7124 28.96 84.2991 28.08C82.9124 27.2 81.8057 26.0133 80.9791 24.52C80.1791 23 79.7791 21.3067 79.7791 19.44C79.7791 17.5467 80.1791 15.8533 80.9791 14.36C81.8057 12.84 82.9124 11.64 84.2991 10.76C85.7124 9.85333 87.2857 9.4 89.0191 9.4C90.4857 9.4 91.7791 9.72 92.8991 10.36C94.0457 10.9733 94.9524 11.8267 95.6191 12.92C96.2857 14.0133 96.6191 15.2533 96.6191 16.64V22.16C96.6191 23.5467 96.2857 24.7867 95.6191 25.88C94.9791 26.9733 94.0857 27.84 92.9391 28.48C91.7924 29.0933 90.4857 29.4 89.0191 29.4ZM89.7391 25.24C91.3657 25.24 92.6724 24.6933 93.6591 23.6C94.6724 22.5067 95.1791 21.1067 95.1791 19.4C95.1791 18.2533 94.9524 17.24 94.4991 16.36C94.0457 15.48 93.4057 14.8 92.5791 14.32C91.7791 13.8133 90.8324 13.56 89.7391 13.56C88.6724 13.56 87.7257 13.8133 86.8991 14.32C86.0991 14.8 85.4591 15.48 84.9791 16.36C84.5257 17.24 84.2991 18.2533 84.2991 19.4C84.2991 20.5467 84.5257 21.56 84.9791 22.44C85.4591 23.32 86.0991 24.0133 86.8991 24.52C87.7257 25 88.6724 25.24 89.7391 25.24ZM94.8991 29V23.84L95.6591 19.16L94.8991 14.52V9.8H99.2991V29H94.8991ZM100.782 29V9.8H105.182V29H100.782ZM113.542 29V17.56C113.542 16.28 113.142 15.2933 112.342 14.6C111.542 13.88 110.556 13.52 109.382 13.52C108.582 13.52 107.862 13.68 107.222 14C106.609 14.32 106.116 14.7867 105.742 15.4C105.369 15.9867 105.182 16.7067 105.182 17.56L103.462 16.6C103.462 15.1333 103.782 13.8667 104.422 12.8C105.062 11.7333 105.929 10.9067 107.022 10.32C108.116 9.70667 109.342 9.4 110.702 9.4C112.062 9.4 113.289 9.69333 114.382 10.28C115.476 10.8667 116.342 11.6933 116.982 12.76C117.622 13.8267 117.942 15.1067 117.942 16.6V29H113.542ZM126.302 29V17.56C126.302 16.28 125.902 15.2933 125.102 14.6C124.302 13.88 123.316 13.52 122.142 13.52C121.369 13.52 120.662 13.68 120.022 14C119.382 14.32 118.876 14.7867 118.502 15.4C118.129 15.9867 117.942 16.7067 117.942 17.56L115.462 16.6C115.596 15.1333 116.022 13.8667 116.742 12.8C117.462 11.7333 118.382 10.9067 119.502 10.32C120.649 9.70667 121.902 9.4 123.262 9.4C124.649 9.4 125.902 9.69333 127.022 10.28C128.142 10.8667 129.036 11.6933 129.702 12.76C130.369 13.8267 130.702 15.1067 130.702 16.6V29H126.302ZM139.715 29.4C138.089 29.4 136.635 29.04 135.355 28.32C134.102 27.6 133.115 26.6133 132.395 25.36C131.702 24.08 131.355 22.6133 131.355 20.96V9.8H135.755V20.76C135.755 21.6933 135.902 22.4933 136.195 23.16C136.515 23.8 136.969 24.2933 137.555 24.64C138.169 24.9867 138.889 25.16 139.715 25.16C140.995 25.16 141.969 24.7867 142.635 24.04C143.329 23.2667 143.675 22.1733 143.675 20.76V9.8H148.075V20.96C148.075 22.64 147.715 24.12 146.995 25.4C146.302 26.6533 145.329 27.64 144.075 28.36C142.822 29.0533 141.369 29.4 139.715 29.4ZM162.259 29V17.92C162.259 16.64 161.846 15.5867 161.019 14.76C160.219 13.9333 159.179 13.52 157.899 13.52C157.046 13.52 156.286 13.7067 155.619 14.08C154.953 14.4533 154.433 14.9733 154.059 15.64C153.686 16.3067 153.499 17.0667 153.499 17.92L151.779 16.96C151.779 15.4933 152.099 14.2 152.739 13.08C153.379 11.9333 154.259 11.04 155.379 10.4C156.526 9.73333 157.806 9.4 159.219 9.4C160.659 9.4 161.939 9.77333 163.059 10.52C164.179 11.24 165.059 12.1867 165.699 13.36C166.339 14.5067 166.659 15.7067 166.659 16.96V29H162.259ZM149.099 29V9.8H153.499V29H149.099ZM175.731 37.4C173.704 37.4 171.931 37.0267 170.411 36.28C168.891 35.56 167.664 34.5333 166.731 33.2L169.611 30.32C170.384 31.28 171.264 32 172.251 32.48C173.237 32.96 174.424 33.2 175.811 33.2C177.544 33.2 178.917 32.7467 179.931 31.84C180.944 30.96 181.451 29.7467 181.451 28.2V23.48L182.211 19.24L181.451 14.96V9.8H185.851V28.2C185.851 30.04 185.424 31.64 184.571 33C183.717 34.3867 182.531 35.4667 181.011 36.24C179.491 37.0133 177.731 37.4 175.731 37.4ZM175.531 28.6C173.824 28.6 172.277 28.1867 170.891 27.36C169.531 26.5067 168.451 25.3467 167.651 23.88C166.877 22.4133 166.491 20.7733 166.491 18.96C166.491 17.1467 166.877 15.52 167.651 14.08C168.451 12.64 169.531 11.5067 170.891 10.68C172.277 9.82667 173.824 9.4 175.531 9.4C177.051 9.4 178.384 9.70667 179.531 10.32C180.677 10.9333 181.571 11.7867 182.211 12.88C182.851 13.9467 183.171 15.2 183.171 16.64V21.36C183.171 22.7733 182.837 24.0267 182.171 25.12C181.531 26.2133 180.637 27.0667 179.491 27.68C178.344 28.2933 177.024 28.6 175.531 28.6ZM176.411 24.44C177.477 24.44 178.411 24.2133 179.211 23.76C180.011 23.3067 180.624 22.68 181.051 21.88C181.504 21.0533 181.731 20.0933 181.731 19C181.731 17.9067 181.504 16.96 181.051 16.16C180.624 15.3333 180.011 14.6933 179.211 14.24C178.411 13.7867 177.477 13.56 176.411 13.56C175.344 13.56 174.397 13.7867 173.571 14.24C172.771 14.6933 172.144 15.3333 171.691 16.16C171.237 16.96 171.011 17.9067 171.011 19C171.011 20.0667 171.237 21.0133 171.691 21.84C172.144 22.6667 172.771 23.3067 173.571 23.76C174.397 24.2133 175.344 24.44 176.411 24.44ZM199.538 29L191.418 19.2L199.498 9.8H204.738L195.458 20.36L195.658 17.84L205.138 29H199.538ZM187.338 29V0.199999H191.738V29H187.338ZM211.432 29.4C209.698 29.4 208.125 28.96 206.712 28.08C205.325 27.2 204.218 26.0133 203.392 24.52C202.592 23 202.192 21.3067 202.192 19.44C202.192 17.5467 202.592 15.8533 203.392 14.36C204.218 12.84 205.325 11.64 206.712 10.76C208.125 9.85333 209.698 9.4 211.432 9.4C212.898 9.4 214.192 9.72 215.312 10.36C216.458 10.9733 217.365 11.8267 218.032 12.92C218.698 14.0133 219.032 15.2533 219.032 16.64V22.16C219.032 23.5467 218.698 24.7867 218.032 25.88C217.392 26.9733 216.498 27.84 215.352 28.48C214.205 29.0933 212.898 29.4 211.432 29.4ZM212.152 25.24C213.778 25.24 215.085 24.6933 216.072 23.6C217.085 22.5067 217.592 21.1067 217.592 19.4C217.592 18.2533 217.365 17.24 216.912 16.36C216.458 15.48 215.818 14.8 214.992 14.32C214.192 13.8133 213.245 13.56 212.152 13.56C211.085 13.56 210.138 13.8133 209.312 14.32C208.512 14.8 207.872 15.48 207.392 16.36C206.938 17.24 206.712 18.2533 206.712 19.4C206.712 20.5467 206.938 21.56 207.392 22.44C207.872 23.32 208.512 24.0133 209.312 24.52C210.138 25 211.085 25.24 212.152 25.24ZM217.312 29V23.84L218.072 19.16L217.312 14.52V9.8H221.712V29H217.312ZM229.475 29.4C228.408 29.4 227.381 29.2667 226.395 29C225.408 28.7067 224.501 28.3067 223.675 27.8C222.848 27.2667 222.128 26.6267 221.515 25.88L224.315 23.08C224.981 23.8533 225.741 24.44 226.595 24.84C227.475 25.2133 228.461 25.4 229.555 25.4C230.541 25.4 231.288 25.2533 231.795 24.96C232.301 24.6667 232.555 24.24 232.555 23.68C232.555 23.0933 232.315 22.64 231.835 22.32C231.355 22 230.728 21.7333 229.955 21.52C229.208 21.28 228.408 21.04 227.555 20.8C226.728 20.56 225.928 20.24 225.155 19.84C224.408 19.4133 223.795 18.84 223.315 18.12C222.835 17.4 222.595 16.4667 222.595 15.32C222.595 14.0933 222.875 13.04 223.435 12.16C224.021 11.28 224.835 10.6 225.875 10.12C226.941 9.64 228.208 9.4 229.675 9.4C231.221 9.4 232.581 9.68 233.755 10.24C234.955 10.7733 235.955 11.5867 236.755 12.68L233.955 15.48C233.395 14.7867 232.755 14.2667 232.035 13.92C231.315 13.5733 230.488 13.4 229.555 13.4C228.675 13.4 227.995 13.5333 227.515 13.8C227.035 14.0667 226.795 14.4533 226.795 14.96C226.795 15.4933 227.035 15.9067 227.515 16.2C227.995 16.4933 228.608 16.7467 229.355 16.96C230.128 17.1733 230.928 17.4133 231.755 17.68C232.608 17.92 233.408 18.2667 234.155 18.72C234.928 19.1467 235.555 19.7333 236.035 20.48C236.515 21.2 236.755 22.1467 236.755 23.32C236.755 25.1867 236.101 26.6667 234.795 27.76C233.488 28.8533 231.715 29.4 229.475 29.4Z" fill="#E8FAFA"/>
</svg>
